<svg xmlns="http://www.w3.org/2000/svg" width="35" height="33" viewBox="0 0 35 33"><g transform="translate(-930 -7995)"><path d="M16.5,2A14.5,14.5,0,0,0,6.247,26.753,14.405,14.405,0,0,0,16.5,31h2A14.5,14.5,0,0,0,28.753,6.247,14.405,14.405,0,0,0,18.5,2h-2m0-2h2a16.5,16.5,0,0,1,0,33h-2a16.5,16.5,0,0,1,0-33Z" transform="translate(930 7995)" fill="#fff"/><path d="M648.5,5847.531a1,1,0,0,1-.707-1.707l6.808-6.809-6.808-6.808a1,1,0,1,1,1.414-1.414l7.515,7.515a1,1,0,0,1,0,1.414l-7.515,7.516A1,1,0,0,1,648.5,5847.531Z" transform="translate(296.362 2172.331)" fill="#fff"/></g></svg>