<svg xmlns="http://www.w3.org/2000/svg" width="28.197" height="28.937" viewBox="0 0 28.197 28.937">
  <path id="Icon_awesome-arrow-up" data-name="Icon awesome-arrow-up" d="M2.286,18.88.853,17.446a1.544,1.544,0,0,1,0-2.189L13.4,2.7a1.544,1.544,0,0,1,2.189,0L28.139,15.25a1.544,1.544,0,0,1,0,2.189l-1.434,1.434a1.552,1.552,0,0,1-2.215-.026l-7.408-7.776V29.633a1.546,1.546,0,0,1-1.55,1.55H13.466a1.546,1.546,0,0,1-1.55-1.55V11.072L4.5,18.854a1.541,1.541,0,0,1-2.215.026Z" transform="translate(-0.397 -2.246)" fill="#fff"/>
</svg>
