<svg xmlns="http://www.w3.org/2000/svg" xmlns:xlink="http://www.w3.org/1999/xlink" width="30.002" height="30.003" viewBox="0 0 30.002 30.003">
  <defs>
    <clipPath id="clip-path">
      <path id="Clip_2" data-name="Clip 2" d="M0,0H30V30H0Z" transform="translate(0 0)" fill="#fff"/>
    </clipPath>
  </defs>
  <g id="Group_3" data-name="Group 3" transform="translate(0 0)" clip-path="url(#clip-path)">
    <path id="Fill_1" data-name="Fill 1" d="M15,30A15.021,15.021,0,0,1,0,15.017a.034.034,0,0,0,0-.008A.034.034,0,0,1,0,15a.038.038,0,0,1,0-.011l0-.006A14.885,14.885,0,0,1,1.158,9.242,15.066,15.066,0,0,1,4.324,4.47,14.841,14.841,0,0,1,15,0,15.019,15.019,0,0,1,30,15a14.841,14.841,0,0,1-1.168,5.788,15.05,15.05,0,0,1-3.2,4.774A14.869,14.869,0,0,1,15,30Zm.6-7.717v6.451c1.8-.38,3.467-2.459,4.567-5.705A17.819,17.819,0,0,0,15.6,22.287Zm-1.2,0a17.735,17.735,0,0,0-4.56.747c1.1,3.242,2.761,5.321,4.56,5.7Zm6.926,1.141h0a12.91,12.91,0,0,1-2.791,4.908,13.582,13.582,0,0,0,5.959-3.329,17.746,17.746,0,0,0-3.168-1.579Zm-12.647,0A17.668,17.668,0,0,0,5.514,25.01a13.583,13.583,0,0,0,5.956,3.325A12.908,12.908,0,0,1,8.68,23.429ZM1.218,15.6a13.821,13.821,0,0,0,3.455,8.539A18.856,18.856,0,0,1,8.33,22.282,27.144,27.144,0,0,1,7.412,15.6Zm21.377,0a27.1,27.1,0,0,1-.918,6.682,18.919,18.919,0,0,1,3.659,1.854A13.82,13.82,0,0,0,28.788,15.6Zm-6.995,0v5.488a18.983,18.983,0,0,1,4.918.8,26.25,26.25,0,0,0,.877-6.284Zm-6.989,0a26.247,26.247,0,0,0,.877,6.284,18.976,18.976,0,0,1,4.912-.8V15.6ZM25.334,5.867h0a18.941,18.941,0,0,1-3.658,1.857,27.139,27.139,0,0,1,.918,6.676h6.193a13.814,13.814,0,0,0-3.453-8.533ZM20.517,8.122h0a19,19,0,0,1-4.918.795V14.4h5.8a26.2,26.2,0,0,0-.877-6.278Zm-11.03,0A26.194,26.194,0,0,0,8.611,14.4H14.4V8.917A18.965,18.965,0,0,1,9.488,8.123ZM4.67,5.869A13.826,13.826,0,0,0,1.218,14.4H7.412a27.194,27.194,0,0,1,.917-6.675A18.82,18.82,0,0,1,4.67,5.869Zm10.93-4.6V7.719a17.768,17.768,0,0,0,4.567-.747C19.067,3.727,17.4,1.647,15.6,1.268Zm-1.2,0c-1.8.383-3.463,2.463-4.561,5.706a17.814,17.814,0,0,0,4.561.745Zm-2.922.394A13.737,13.737,0,0,0,5.512,5a17.653,17.653,0,0,0,3.167,1.58A12.9,12.9,0,0,1,11.478,1.662Zm7.067.016a12.916,12.916,0,0,1,2.781,4.9A17.7,17.7,0,0,0,24.492,5,13.674,13.674,0,0,0,18.545,1.679Z" transform="translate(0 0)" fill="#fff"/>
  </g>
</svg>
