<svg id="Group" xmlns="http://www.w3.org/2000/svg" width="20" height="20" viewBox="0 0 20 20">
  <path id="Fill_3" data-name="Fill 3" d="M10,20c-2.694,0-3.05-.012-4.123-.061a7.457,7.457,0,0,1-2.429-.463,4.943,4.943,0,0,1-1.77-1.154A4.9,4.9,0,0,1,.526,16.55a7.357,7.357,0,0,1-.465-2.427C.011,13.049,0,12.726,0,10S.012,6.93.061,5.878A7.359,7.359,0,0,1,.526,3.45,4.885,4.885,0,0,1,1.679,1.679,4.91,4.91,0,0,1,3.449.526,7.4,7.4,0,0,1,5.878.061C6.95.012,7.306,0,10,0s3.048.012,4.123.061a7.4,7.4,0,0,1,2.428.465A5.115,5.115,0,0,1,19.474,3.45a7.385,7.385,0,0,1,.465,2.428C19.988,6.951,20,7.307,20,10s-.012,3.048-.061,4.123a7.382,7.382,0,0,1-.465,2.427,4.882,4.882,0,0,1-1.153,1.772,4.943,4.943,0,0,1-1.77,1.154,7.455,7.455,0,0,1-2.428.463C13.049,19.988,12.693,20,10,20ZM10,1.8c-2.679,0-2.994.01-4.041.059A5.538,5.538,0,0,0,4.1,2.2a3.1,3.1,0,0,0-1.149.748A3.089,3.089,0,0,0,2.205,4.1,5.5,5.5,0,0,0,1.86,5.959C1.811,7.029,1.8,7.347,1.8,10s.01,2.971.059,4.04A5.5,5.5,0,0,0,2.205,15.9a3.089,3.089,0,0,0,.747,1.15A3.1,3.1,0,0,0,4.1,17.8a5.52,5.52,0,0,0,1.858.345c1.03.048,1.342.058,4.041.058s3.01-.01,4.04-.058A5.516,5.516,0,0,0,15.9,17.8a3.3,3.3,0,0,0,1.9-1.9,5.462,5.462,0,0,0,.345-1.857c.048-1.047.059-1.363.059-4.04s-.01-2.994-.059-4.041A5.462,5.462,0,0,0,17.795,4.1a3.3,3.3,0,0,0-1.9-1.9,5.535,5.535,0,0,0-1.857-.344C12.992,1.812,12.677,1.8,10,1.8Z" transform="translate(0 0)" fill="#fff"/>
  <path id="Fill_5" data-name="Fill 5" d="M5.135,10.27A5.135,5.135,0,1,1,10.27,5.134,5.141,5.141,0,0,1,5.135,10.27Zm0-8.469A3.333,3.333,0,1,0,8.468,5.134,3.337,3.337,0,0,0,5.135,1.8Z" transform="translate(4.865 4.866)" fill="#fff"/>
  <path id="Fill_7" data-name="Fill 7" d="M2.4,1.2A1.2,1.2,0,1,1,1.2,0,1.2,1.2,0,0,1,2.4,1.2" transform="translate(14.138 3.462)" fill="#fff"/>
</svg>
